<svg width="135" height="45" viewBox="0 0 135 45" fill="none" xmlns="http://www.w3.org/2000/svg">
<g clip-path="url(#clip0_2431_24299)">
<path d="M104.897 31.4137C104.608 31.4137 104.408 31.2251 104.408 30.9528V17.4312H99.5306C99.2415 17.4312 99.0412 17.2426 99.0412 16.9703V15.1056C99.0412 14.8334 99.2415 14.6448 99.5306 14.6448H112.51C112.8 14.6448 113 14.8334 113 15.1056V16.9703C113 17.2426 112.8 17.4312 112.51 17.4312H107.635V30.9528C107.635 31.2251 107.435 31.4137 107.146 31.4137H104.897ZM67.5474 24.6626L64.9869 17.7442L62.4037 24.6626H67.5453H67.5474ZM73.2238 30.8673C73.3353 31.1395 73.1577 31.4137 72.8459 31.4137H70.5311C70.1966 31.4137 69.9963 31.2678 69.8848 30.9723L68.5716 27.4081H61.3816L60.0663 30.9723C59.9548 31.2659 59.7545 31.4137 59.422 31.4137H57.2415C56.9524 31.4137 56.7521 31.1414 56.8636 30.8673L62.8972 15.0609C63.0087 14.7673 63.209 14.6428 63.5415 14.6428H66.5253C66.8598 14.6428 67.0807 14.7673 67.1922 15.0609L73.2258 30.8673M90.5173 29.1484C91.9421 29.1484 92.8981 28.4989 93.6786 27.3887L90.0733 23.7409C88.6919 24.4759 87.8019 25.2089 87.8019 26.677C87.8019 28.1451 89.0491 29.1503 90.5193 29.1503M91.5208 16.8653C90.3645 16.8653 89.6955 17.5576 89.6955 18.4792C89.6955 19.1928 90.096 19.8209 91.0087 20.7426C92.5884 19.8831 93.2574 19.3601 93.2574 18.4364C93.2574 17.577 92.6792 16.8634 91.5208 16.8634M101.383 30.8264C101.672 31.1201 101.494 31.4137 101.137 31.4137H98.3102C97.9323 31.4137 97.73 31.3301 97.4863 31.0559L95.7952 29.2962C94.6595 30.7214 93.0778 31.7909 90.4512 31.7909C87.2011 31.7909 84.6406 29.9456 84.6406 26.7801C84.6406 24.3476 86.022 23.0487 88.1137 21.9578C87.0896 20.8456 86.6229 19.6731 86.6229 18.6464C86.6229 16.0467 88.5598 14.2637 91.4754 14.2637C94.391 14.2637 96.2845 15.9203 96.2845 18.3723C96.2845 20.4684 94.6822 21.6409 92.989 22.5237L95.4834 25.0612L96.8854 22.7551C97.063 22.4828 97.2633 22.3778 97.6205 22.3778H99.7804C100.138 22.3778 100.338 22.6092 100.115 22.9651L97.6205 26.9901L101.383 30.8264ZM79.1665 31.4137C79.4556 31.4137 79.6559 31.2251 79.6559 30.9528V17.4312H84.5311C84.8202 17.4312 85.0205 17.2426 85.0205 16.9703V15.1056C85.0205 14.8334 84.8202 14.6448 84.5311 14.6448H71.5512C71.2621 14.6448 71.0618 14.8334 71.0618 15.1056V16.9703C71.0618 17.2426 71.2621 17.4312 71.5512 17.4312H76.4264V30.9528C76.4264 31.2251 76.6267 31.4137 76.9158 31.4137H79.1645H79.1665Z" fill="white"/>
<path d="M27.7507 34.0581C30.272 35.8956 33.4354 37 36.8673 37C40.6233 37 44.0469 35.6856 46.6611 33.5292C46.692 33.5039 46.6776 33.4844 46.6466 33.5039C45.4737 34.2408 42.1307 35.8528 36.8673 35.8528C32.2935 35.8528 29.4027 34.8922 27.7693 34.0328C27.7383 34.0192 27.726 34.0406 27.7507 34.0581ZM37.877 34.7736C41.536 34.7736 45.5563 33.8344 47.9599 31.9736C48.6186 31.4681 49.2442 30.7933 49.8059 29.8853C50.128 29.3642 50.444 28.7439 50.7021 28.1353C50.7145 28.1061 50.6938 28.0906 50.6711 28.1236C48.4348 31.2231 41.9593 33.1578 35.2732 33.1578C30.5466 33.1578 25.4628 31.7344 23.4723 29.0161C23.4516 28.9908 23.433 29.0025 23.4454 29.0317C25.2997 32.7436 30.9265 34.7736 37.877 34.7736ZM33.8794 28.6136C26.2702 28.6136 22.6814 25.275 22.031 22.9961C22.0227 22.9631 22 22.9708 22 23C22 23.7661 22.0826 24.7578 22.223 25.4131C22.2891 25.7319 22.5658 26.2356 22.9705 26.6342C24.8124 28.4425 29.4068 30.9781 37.3628 30.9781C48.2015 30.9781 50.6793 27.5772 51.1852 26.4592C51.5487 25.66 51.7345 24.2133 51.7345 23C51.7345 22.7064 51.7263 22.4711 51.7139 22.2397C51.7139 22.2028 51.6911 22.1989 51.6829 22.2358C51.1419 24.9736 41.8808 28.6117 33.8773 28.6117M23.433 16.9936C22.9973 17.8083 22.5142 19.1831 22.3696 19.8947C22.3077 20.2 22.3345 20.3458 22.4481 20.5733C23.3608 22.3972 27.9737 25.3139 38.7339 25.3139C45.2982 25.3139 50.3985 23.7953 51.2245 21.0225C51.3773 20.5131 51.3835 19.9725 51.1894 19.2472C50.9705 18.4364 50.5617 17.4894 50.2147 16.8264C50.2024 16.805 50.1838 16.8069 50.1879 16.8342C50.3159 20.4703 39.5516 22.8153 34.1209 22.8153C28.2381 22.8153 23.3298 20.6064 23.3298 17.8181C23.3298 17.5497 23.3876 17.2833 23.4619 17.0033C23.4702 16.9781 23.4454 16.9742 23.4351 16.9956M46.6858 12.5292C46.7478 12.6206 46.7788 12.7197 46.7788 12.8519C46.7788 14.4075 41.726 17.1589 33.6811 17.1589C27.7714 17.1589 26.6646 15.0939 26.6646 13.7794C26.6646 13.3108 26.8546 12.8286 27.2758 12.3425C27.2985 12.3133 27.2799 12.3017 27.2531 12.3231C26.485 12.9356 25.7808 13.6258 25.1614 14.3706C24.8661 14.7225 24.6823 15.0336 24.6823 15.2222C24.6823 17.9444 31.928 19.9181 38.705 19.9181C45.9239 19.9181 49.1472 17.6975 49.1472 15.7472C49.1472 15.0492 48.8581 14.6428 48.123 13.8533C47.644 13.34 47.1917 12.9219 46.7127 12.5097C46.69 12.4922 46.6735 12.5058 46.69 12.5292M44.4764 10.9736C42.2442 9.71556 39.6569 9 36.8673 9C34.0776 9 31.3932 9.74083 29.1569 11.0319C28.4858 11.4208 28.108 11.7319 28.108 12.1325C28.108 13.3147 31.0381 14.5825 36.2354 14.5825C41.4327 14.5825 45.3684 13.1922 45.3684 11.8525C45.3684 11.5336 45.0732 11.31 44.4723 10.9717" fill="#009FDB"/>
</g>
<defs>
<clipPath id="clip0_2431_24299">
<rect width="91" height="28" fill="white" transform="translate(22 9)"/>
</clipPath>
</defs>
</svg>
