<svg width="135" height="45" viewBox="0 0 135 45" fill="none" xmlns="http://www.w3.org/2000/svg">
<g clip-path="url(#clip0_2431_41190)">
<path fill-rule="evenodd" clip-rule="evenodd" d="M69.3265 22.1988C69.3265 21.4927 70.334 20.98 71.8789 20.98C73.6409 20.98 75.2968 21.5952 76.3267 22.4608C76.518 22.6216 76.8109 22.5707 76.9361 22.3559L78.1938 19.8943C78.2907 19.7283 78.2459 19.5176 78.0904 19.4023C76.5366 18.2527 74.4454 17.4275 71.8451 17.4275C67.58 17.4275 65.1955 19.7748 65.1955 22.4526C65.1955 28.7051 74.8338 26.541 74.8338 29.2907C74.8338 30.0429 73.9608 30.6802 72.1136 30.6802C70.2785 30.6802 68.1091 29.9673 66.8486 28.9816C66.6604 28.8343 66.3832 28.8845 66.2567 29.0858L64.8287 31.4375C64.7288 31.597 64.7618 31.805 64.9073 31.9254C66.628 33.3485 69.2241 34.1889 71.912 34.1889C76.4121 34.1889 78.9308 32.0069 78.9308 29.0647C78.9314 22.7641 69.3265 24.71 69.3265 22.1988Z" fill="white"/>
<path fill-rule="evenodd" clip-rule="evenodd" d="M49.894 11.5391H46.1414C45.9904 11.5391 45.8684 11.6595 45.8684 11.8078V19.6037C44.6117 18.2523 42.9248 17.4284 41.0273 17.4284C36.977 17.4288 33.6938 21.1805 33.6938 25.8086C33.6938 30.4368 36.977 34.1885 41.027 34.1885C42.9245 34.1885 44.6114 33.3647 45.8681 32.0132V33.5231C45.8681 33.6717 45.9904 33.7919 46.1411 33.7919H49.894C50.0449 33.7919 50.167 33.6714 50.167 33.5231V11.8078C50.167 11.6595 50.0446 11.5391 49.894 11.5391ZM41.928 30.6696C39.7513 30.6696 37.9869 28.4926 37.9869 25.8073C37.9869 23.122 39.7513 20.945 41.928 20.945C44.095 20.945 45.8526 23.1027 45.8684 25.7717V25.8429C45.8526 28.5116 44.095 30.6696 41.928 30.6696Z" fill="white"/>
<path fill-rule="evenodd" clip-rule="evenodd" d="M90.0097 17.4274C88.0278 17.4274 86.5025 18.2472 85.5016 19.5854V11.8078C85.5016 11.6592 85.3792 11.5391 85.2286 11.5391H81.4764C81.3254 11.5391 81.2034 11.6595 81.2034 11.8078V33.5228C81.2034 33.6714 81.3257 33.7915 81.4764 33.7915H85.2286C85.3796 33.7915 85.5016 33.6711 85.5016 33.5228V24.2366C85.5043 22.1346 87.0296 20.963 88.8719 20.963C90.7159 20.963 92.1643 22.079 92.1643 24.8185L92.1681 33.5231C92.1681 33.6717 92.2905 33.7919 92.4411 33.7919H96.1933C96.3443 33.7919 96.4663 33.6714 96.4663 33.5231V24.5603C96.467 19.6336 93.5944 17.4274 90.0097 17.4274Z" fill="white"/>
<path d="M55.0419 13.3007C55.0419 11.9187 56.2118 10.8 57.5822 10.8C58.9861 10.8 60.1225 11.9187 60.1225 13.3007C60.1225 14.6827 58.9861 15.8014 57.5822 15.8014C56.2118 15.8014 55.0419 14.6827 55.0419 13.3007ZM62.4454 29.728C60.7285 30.7099 58.8868 30.9688 57.6188 30.9709C56.351 30.9688 54.509 30.7099 52.7921 29.728C52.5105 29.5729 52.3609 29.8437 52.4192 30.0798C53.0021 32.4377 55.0998 34.1858 57.6032 34.2001H57.6343C60.1374 34.1858 62.2354 32.4377 62.8183 30.0798C62.8766 29.8437 62.7266 29.5729 62.4454 29.728ZM61.4296 23.7748C60.0743 24.5501 58.6197 24.7544 57.6188 24.7561C56.6178 24.7544 55.1636 24.5501 53.8079 23.7748C53.5856 23.6523 53.4674 23.8661 53.5136 24.0527C53.9737 25.9145 55.6303 27.2948 57.6067 27.306H57.6312C59.6076 27.2948 61.2641 25.9145 61.7243 24.0527C61.7701 23.8661 61.6519 23.6523 61.4296 23.7748ZM60.3476 18.7008C59.377 19.2563 58.3357 19.4025 57.6188 19.4035C56.9018 19.4025 55.8605 19.2559 54.8899 18.7008C54.7306 18.6133 54.6459 18.7663 54.6789 18.8997C55.0085 20.2328 56.1945 21.2212 57.6101 21.2293H57.6277C59.043 21.2212 60.2294 20.2328 60.5589 18.8997C60.5916 18.7663 60.5069 18.6129 60.3476 18.7008Z" fill="white"/>
<path d="M98.2796 32.8237V32.9798H97.9729V33.7673H97.7826V32.9798H97.4758V32.8237H98.2796ZM99.3157 33.7677L99.2806 33.2126C99.2771 33.1396 99.2771 33.0494 99.2737 32.9489H99.263C99.2382 33.0321 99.2103 33.1434 99.182 33.2299L99.0093 33.7538H98.8118L98.6391 33.216C98.6216 33.143 98.5933 33.0321 98.5723 32.9489H98.5616C98.5616 33.0358 98.5581 33.1261 98.5547 33.2126L98.5195 33.7677H98.3362L98.4068 32.8237H98.6922L98.858 33.2852C98.879 33.3581 98.897 33.4274 98.9214 33.5247H98.9249C98.9497 33.4379 98.9707 33.3581 98.9917 33.2889L99.1575 32.8241H99.4326L99.5067 33.768H99.3157V33.7677Z" fill="white"/>
</g>
<defs>
<clipPath id="clip0_2431_41190">
<rect width="65.8125" height="23.4" fill="white" transform="translate(33.6938 10.8)"/>
</clipPath>
</defs>
</svg>
