<svg width="135" height="45" viewBox="0 0 135 45" fill="none" xmlns="http://www.w3.org/2000/svg">
<path d="M44.5149 16.8628H41.0273C39.7903 16.8628 39.1883 17.1795 39.1883 17.1795V9.823H33.7336V32.3686H39.1561V23.2998C39.1561 22.5068 39.8217 21.8412 40.6147 21.8412H43.7856C44.5786 21.8412 45.2442 22.5068 45.2442 23.2998V32.4001H50.6981V22.5705C50.6981 18.4487 47.9389 16.8628 44.5149 16.8628ZM96.7725 16.8628V25.9631C96.7725 26.756 96.1069 27.4216 95.3139 27.4216H92.143C91.35 27.4216 90.6844 26.756 90.6844 25.9631V16.8628H85.2305V26.4071C85.2305 30.3073 87.7358 32.3686 91.4137 32.3686H96.741C100.134 32.3686 102.195 29.927 102.195 26.4071V16.8628H96.7725ZM66.1097 25.9631C66.1097 26.756 65.444 27.4216 64.6511 27.4216H61.4801C60.6872 27.4216 60.0216 26.756 60.0216 25.9631V16.8628H54.5677V26.4071C54.5677 30.3073 57.073 32.3686 60.7509 32.3686H66.0782C69.4708 32.3686 71.5321 29.927 71.5321 26.4071V16.8628H66.0782C66.1097 16.8628 66.1097 25.6778 66.1097 25.9631ZM75.6862 32.4001H81.1401V9.823H75.6862V32.4001Z" fill="#1CE783"/>
</svg>
