<svg width="135" height="45" viewBox="0 0 135 45" fill="none" xmlns="http://www.w3.org/2000/svg">
<path d="M46.8396 22.4768H48.0005V26.4909C48.0005 27.8471 48.5651 29.105 51.1776 29.105C52.1252 29.105 53.2029 28.9839 53.6146 28.9112V25.5737C53.6146 25.5737 53.1317 25.6009 52.7109 25.5934C51.942 25.5934 51.9647 25.1771 51.9647 24.9031V22.4768H53.719V19.0409H51.9723V15.9047H48.0005V19.0409H46.8396V22.4768Z" fill="white"/>
<path d="M28.8891 25.6823C27.9491 25.6823 27.1863 24.9225 27.1863 23.981C27.1863 23.0396 27.9491 22.2812 28.8891 22.2812C29.829 22.2812 30.5889 23.0426 30.5889 23.981C30.5889 24.9195 29.826 25.6823 28.8891 25.6823V25.6823ZM28.8876 18.7136C25.7392 18.7136 23.3992 21.0491 23.3992 23.9795C23.3992 26.9099 25.7392 29.2484 28.8876 29.2484C32.0359 29.2484 34.3745 26.9129 34.3745 23.9795C34.3745 21.0461 32.0374 18.7136 28.8876 18.7136" fill="white"/>
<path d="M40.7217 25.6863C39.7818 25.6863 39.0219 24.9265 39.0219 23.9865C39.0219 23.0466 39.7818 22.2867 40.7217 22.2867C41.6617 22.2867 42.4231 23.0466 42.4231 23.9865C42.4231 24.9265 41.6602 25.6863 40.7217 25.6863ZM41.8554 18.704C40.6945 18.704 39.7333 19.0672 39.0552 19.8528C39.081 19.709 39.1052 19.488 39.1052 19.2065L39.1082 19.04H35.144V31.5001H39.1082V28.1702C39.7833 28.9134 40.7248 29.2585 41.8539 29.2585C44.412 29.2585 46.4251 27.044 46.4251 23.9805C46.4251 20.9169 44.412 18.7055 41.8539 18.7055" fill="white"/>
<path d="M108.153 24.2595C106.815 24.2595 105.732 25.3433 105.732 26.6798C105.732 28.0163 106.815 29.1016 108.153 29.1016C109.492 29.1016 110.572 28.0178 110.572 26.6798C110.572 25.3418 109.488 24.2595 108.153 24.2595Z" fill="white"/>
<path d="M57.9352 13.5C56.5972 13.5 55.5134 14.5853 55.5134 15.9218C55.5134 17.2583 56.5972 18.3436 57.9352 18.3436C59.2733 18.3436 60.354 17.2598 60.354 15.9218C60.354 14.5838 59.2718 13.5 57.9352 13.5Z" fill="white"/>
<path d="M54.7988 22.4763H55.9673V28.9288H59.9345V19.0388H54.7988V22.4763Z" fill="white"/>
<path d="M84.0428 24.3738C84.0428 25.1836 83.4858 25.4394 83.0392 25.4394C82.5927 25.4394 82.0811 25.1866 82.0811 24.3738V19.0398H78.1094V24.8794C78.1094 26.947 79.676 29.0948 83.0392 29.0948C86.4025 29.0948 87.9752 26.947 88.007 24.8794V19.0398H84.0413V24.3738H84.0428Z" fill="white"/>
<path d="M101.418 18.8728C100.101 18.8728 99.0233 19.4283 98.271 20.3637C97.714 19.4434 96.7393 18.8728 95.4951 18.8728C94.5536 18.8728 93.5939 19.3087 92.9673 20.0322C92.9673 20.0322 93.0475 19.7038 93.0475 19.2149V19.0408H89.0879V28.9323H93.0521V22.8809C93.1641 22.7068 93.5667 22.3345 94.0707 22.3345C94.5748 22.3345 95.0395 22.6372 95.0395 23.3516V28.9339H99.0036V22.8809C99.1172 22.7053 99.5213 22.3329 100.022 22.3329C100.549 22.3329 100.993 22.6372 100.993 23.3501V28.9323H104.961V22.1619C104.961 20.0186 103.196 18.8728 101.418 18.8728Z" fill="white"/>
<path d="M73.4883 18.8728C72.1714 18.8728 71.0937 19.4283 70.3399 20.3637C69.7829 19.4434 68.8066 18.8728 67.564 18.8728C66.6225 18.8728 65.6628 19.3087 65.0347 20.0322C65.0347 20.0322 65.1149 19.7038 65.1149 19.2149V19.0408H61.1553V28.9323H65.1195V22.8809C65.233 22.7068 65.6341 22.3345 66.1381 22.3345C66.6422 22.3345 67.1084 22.6372 67.1084 23.3516V28.9339H71.074V22.8809C71.1861 22.7053 71.5887 22.3329 72.0927 22.3329C72.5968 22.3329 73.0614 22.6372 73.0614 23.3501V28.9323H77.0317V22.1619C77.0317 20.0186 75.2622 18.8728 73.4868 18.8728" fill="white"/>
</svg>
