<svg width="135" height="45" viewBox="0 0 135 45" fill="none" xmlns="http://www.w3.org/2000/svg">
<g clip-path="url(#clip0_2431_41226)">
<path d="M23.7739 27.3067C24.7128 28.1083 26.1227 28.5084 28.0036 28.5084C29.8844 28.5084 31.2382 28.1216 32.2333 27.348C33.2283 26.5183 33.7258 25.3579 33.7258 23.8653C33.7258 23.1744 33.59 22.5381 33.2697 21.9579C32.9759 21.4264 32.4769 20.9259 31.873 20.6248C31.4907 20.4343 31.2574 20.3502 30.7865 20.2055C30.2786 20.049 27.7496 19.3596 27.4928 19.2916C26.0843 18.9477 25.1882 18.4782 25.1823 17.6455C25.2546 16.0334 26.7576 15.9035 27.5873 15.9035C28.417 15.9035 29.1212 16.0836 29.6187 16.4423C30.5119 17.1377 30.4115 18.0191 30.4115 18.0191H33.2254C33.1693 16.6372 32.6717 15.5152 31.7328 14.6589C30.8234 13.8868 29.5227 13.5 27.8368 13.5C26.0401 13.5 24.673 13.8735 23.7325 14.6191C22.7936 15.3941 22.3227 16.4586 22.3227 17.8124C22.3271 19.553 23.1524 20.5775 23.8979 21.047C24.3526 21.3187 25.3831 21.735 26.7177 22.0007L27.8382 22.2443C29.7826 22.7182 30.8987 23.3191 30.8632 24.2802C30.8426 24.8604 30.6418 25.3033 30.2004 25.6074C29.7958 25.8849 29.1079 26.0636 28.2516 26.0636C27.2831 26.0636 26.5243 25.8702 25.9707 25.4834C25.4451 25.1512 25.1277 24.571 25.017 23.7413H22.116C22.1986 25.3166 22.7508 26.505 23.7739 27.3067Z" fill="white"/>
<path d="M37.1524 30.9841C37.1524 31.7267 36.5752 32.4014 35.7351 32.4014H34.3179V22.0243C34.4832 19.2635 35.4871 17.0638 39.6799 16.9132C41.4928 16.9368 42.8097 17.6573 43.5878 18.5667C44.4219 19.6503 44.7777 20.9967 44.7777 22.6901C44.7777 24.3834 44.3614 25.8568 43.5272 26.9405C42.6946 27.996 41.6242 28.5231 40.3192 28.5231C38.3601 28.5231 37.4093 27.7081 37.151 27.5546C37.151 27.6491 37.151 30.9812 37.151 30.9812L37.1524 30.9841ZM41.9033 22.8171C41.9033 21.7334 41.704 19.4422 39.4865 19.4422C37.2691 19.4422 37.1524 21.6788 37.1524 22.8171C37.1524 25.7003 38.7912 26.0679 39.5692 26.0679C41.5829 26.0679 41.9018 23.9317 41.9018 22.8171H41.9033Z" fill="white"/>
<path d="M50.4954 19.3595C52.2774 19.3359 52.5534 20.8521 52.6095 21.5991H48.3813C48.3813 21.5991 48.3459 19.3994 50.4954 19.3595ZM50.6194 26.0355C49.9019 26.0001 48.5334 25.8583 48.4079 23.4652H55.5932C55.5932 23.3929 55.5932 22.606 55.5947 22.6045C55.5445 20.8019 55.1119 19.457 54.2675 18.4486C53.3551 17.4536 52.0692 16.9561 50.4113 16.9561C48.7534 16.9561 47.6062 17.4683 46.7219 18.49C45.8642 19.485 45.436 20.8669 45.436 22.6355C45.436 24.4041 45.8775 25.9115 46.7633 26.9065C47.6476 27.9296 48.8788 28.4404 50.4526 28.4404C51.7518 28.4404 52.8295 28.123 53.6873 27.4867C54.5435 26.88 55.1282 25.9912 55.4323 24.8308H52.9358C52.5682 25.8731 51.6292 26.0872 50.6194 26.037V26.0355Z" fill="white"/>
<path d="M63.5165 24.8337H66.2418C66.2418 24.8337 65.5021 28.4404 61.3846 28.4404C57.2672 28.4404 56.2544 25.1364 56.2544 22.9662C56.2544 20.7959 56.6397 17.0874 61.2252 16.9575C65.4608 16.894 66.1591 20.5642 66.1591 20.5642H63.2566C63.2566 20.5642 62.9747 19.3226 61.2473 19.3624C59.52 19.4008 59.0683 21.0233 59.0683 22.5661C59.0683 24.1088 59.4521 26.0369 61.3699 26.0369C63.1946 26.093 63.3541 25.1068 63.515 24.8352L63.5165 24.8337Z" fill="white"/>
<path d="M69.76 20.1509H71.4652V17.2455H69.7645V15.3794C69.7645 14.8671 69.4795 13.9695 68.3959 13.9695H66.9033V26.1596C66.9033 27.4307 67.3964 28.191 68.4638 28.191C68.4756 28.191 69.7157 28.191 69.7615 28.191V20.1509H69.76Z" fill="white"/>
<path d="M74.5021 28.2132V22.5322C74.5021 21.7026 74.6955 21.0958 75.0823 20.7075C75.4691 20.3207 76.0626 20.1273 76.8657 20.1273H77.8194V17.1835C77.8194 17.1835 76.318 17.1466 75.2284 17.4743C74.5287 17.684 73.9086 17.9719 73.383 18.3867C72.8294 18.8296 72.3939 19.4172 72.0765 20.1494C71.7591 20.8817 71.5996 21.7867 71.5996 22.8659V28.2147H74.5021V28.2132Z" fill="white"/>
<path d="M78.6387 17.2012H81.5411V24.2492C81.5411 24.2492 81.4363 26.1551 83.4486 26.1566C85.3456 26.1566 85.3944 24.4514 85.3958 24.3304V18.5697C85.3958 18.5697 85.4933 17.2026 86.7526 17.2026H88.2585C88.2585 17.2026 88.257 23.6867 88.2585 23.7487C88.2378 24.106 88.6393 28.4405 83.4486 28.4242C78.3065 28.4242 78.6712 24.0381 78.6387 23.7797V17.2012Z" fill="white"/>
<path d="M98.739 28.2485H95.8646V21.1636C95.8646 20.3472 95.528 19.2473 93.9055 19.2473C92.283 19.2473 91.9893 20.4978 91.9893 21.1636V28.2471H89.072V21.7482C89.072 19.86 89.6315 18.7055 90.5513 17.9555C91.4622 17.2129 92.627 16.9694 93.8214 16.9133C94.4606 16.9133 95.0851 16.9826 95.6963 17.1214C96.3075 17.2602 96.8626 17.5377 97.3631 17.9541C97.7794 17.5938 98.2725 17.337 98.8424 17.1834C99.4108 17.0314 100.001 16.9162 100.613 16.9133C104.17 16.8941 105.598 18.5239 105.716 19.0466C105.716 19.0539 105.716 28.2471 105.716 28.2471H104.07C103.654 28.2471 102.653 27.9636 102.653 26.8298V21.1636C102.66 20.3605 102.38 19.2473 100.694 19.2473C99.0077 19.2473 98.7346 20.4978 98.7346 21.1636V28.2471L98.739 28.2485Z" fill="white"/>
<path d="M106.527 19.0421V28.2352L112.583 23.6394L106.527 19.0421Z" fill="#157ABB"/>
</g>
<defs>
<clipPath id="clip0_2431_41226">
<rect width="90.4667" height="18.9" fill="white" transform="translate(22.116 13.5)"/>
</clipPath>
</defs>
</svg>
