<svg width="135" height="45" viewBox="0 0 135 45" fill="none" xmlns="http://www.w3.org/2000/svg">
<g clip-path="url(#clip0_2431_41235)">
<path d="M89.1842 29.3145H92.94V22.4532C92.94 20.8875 93.8553 19.7801 95.2029 19.7801C96.5505 19.7801 97.1775 20.6954 97.1775 21.9949V29.3145H100.933V21.2731C100.933 18.552 99.2963 16.6267 96.6479 16.6267C94.9627 16.6267 93.7826 17.3485 92.892 18.6727H92.8193V16.9876H89.1842V29.3145ZM81.8166 16.65C77.892 16.65 75.2682 19.4672 75.2682 23.1751C75.2682 26.8829 77.892 29.7001 81.8166 29.7001C85.7412 29.7001 88.365 26.8595 88.365 23.1751C88.365 19.4906 85.7412 16.65 81.8166 16.65ZM81.7919 26.9309C80.0107 26.9309 79.0708 25.4379 79.0708 23.1751C79.0708 20.9122 80.0094 19.4192 81.7919 19.4192C83.5744 19.4192 84.5611 20.8875 84.5611 23.1751C84.5611 25.4626 83.5744 26.9309 81.7919 26.9309ZM64.5771 29.3145H75.1228V26.3532H69.1521V26.2805L74.8579 19.8762V16.9876H64.5771V19.9489H70.3556V20.0216L64.5771 26.4739V29.3145ZM59.7618 29.3145H63.5423V16.9876H59.7618V29.3145ZM50.9986 29.3145H54.7545V23.6567C54.7545 21.081 56.2955 19.9489 58.6544 20.2618H58.7271V17.0109C58.535 16.9382 58.3182 16.9149 57.9573 16.9149C56.4889 16.9149 55.501 17.5887 54.6584 19.0336H54.5857V16.9876H50.9986V29.3145ZM44.0893 26.9556C42.4275 26.9556 41.4175 25.8715 41.224 24.2111H50.108C50.1327 21.5626 49.4342 19.4439 47.9646 18.1196C46.9299 17.1563 45.5576 16.6267 43.8232 16.6267C40.1153 16.6267 37.5396 19.4439 37.5396 23.127C37.5396 26.8102 39.9959 29.6754 44.0646 29.6754C45.6057 29.6754 46.8338 29.2665 47.8451 28.568C48.9292 27.8215 49.6991 26.7388 49.9159 25.6547H46.3041C45.9432 26.4726 45.1967 26.9556 44.0893 26.9556ZM43.8972 19.3231C45.2214 19.3231 46.1366 20.3111 46.2807 21.7548H41.2487C41.5382 20.2864 42.3315 19.3231 43.8972 19.3231ZM30.0292 29.3145H33.9772L38.2627 16.9876H34.4822L32.0752 24.9082H32.0272L29.6202 16.9876H25.7437L30.0292 29.3145ZM59.7631 12.606H63.5436V15.9529H59.7631V12.606Z" fill="white"/>
<path d="M100.871 16.9875H102.794L104.718 21.1121L109.527 10.8H111.451L105.68 23.175H103.756L100.871 16.9875Z" fill="white"/>
</g>
<defs>
<clipPath id="clip0_2431_41235">
<rect width="85.7069" height="18.9" fill="white" transform="translate(25.7437 10.8)"/>
</clipPath>
</defs>
</svg>
