<svg width="135" height="45" viewBox="0 0 135 45" fill="none" xmlns="http://www.w3.org/2000/svg">
<g clip-path="url(#clip0_2431_41253)">
<path fill-rule="evenodd" clip-rule="evenodd" d="M39.088 13.1914C40.3057 13.5173 41.2627 14.4743 41.5886 15.692C42.1777 17.8969 42.1777 22.5 42.1777 22.5C42.1777 22.5 42.1777 27.1031 41.5863 29.308C41.2603 30.5257 40.3034 31.4826 39.0857 31.8086C36.8808 32.4 28.0355 32.4 28.0355 32.4C28.0355 32.4 19.1902 32.4 16.9853 31.8086C15.7676 31.4826 14.8107 30.5257 14.4847 29.308C13.8933 27.1031 13.8933 22.5 13.8933 22.5C13.8933 22.5 13.8933 17.8969 14.4847 15.692C14.8107 14.4743 15.7676 13.5173 16.9853 13.1914C19.1902 12.6 28.0355 12.6 28.0355 12.6C28.0355 12.6 36.8808 12.6 39.088 13.1914ZM32.5571 22.5L25.2066 26.7422V18.2578L32.5571 22.5Z" fill="white"/>
<path d="M54.9509 30.6142C54.3921 30.2371 53.994 29.6503 53.7565 28.854C53.5213 28.0578 53.4026 27.0007 53.4026 25.6782V23.8784C53.4026 22.5443 53.5376 21.4709 53.8077 20.663C54.0778 19.8551 54.4992 19.2637 55.072 18.8935C55.6448 18.5233 56.3968 18.337 57.3281 18.337C58.2455 18.337 58.9789 18.5256 59.533 18.9028C60.0849 19.28 60.49 19.8714 60.7461 20.6723C61.0022 21.4756 61.1303 22.5443 61.1303 23.8784V25.6782C61.1303 27.0007 61.0045 28.0624 60.7554 28.8634C60.5063 29.6666 60.1012 30.2534 59.5424 30.6236C58.9836 30.9938 58.2245 31.18 57.2676 31.18C56.2804 31.18 55.5097 30.9914 54.9509 30.6142ZM58.0848 28.6724C58.2385 28.2673 58.3177 27.6084 58.3177 26.691V22.826C58.3177 21.9366 58.2408 21.2847 58.0848 20.8749C57.9288 20.4628 57.6564 20.2579 57.2653 20.2579C56.8881 20.2579 56.6203 20.4628 56.4667 20.8749C56.3107 21.287 56.2338 21.9366 56.2338 22.826V26.6887C56.2338 27.6061 56.3083 28.2673 56.4573 28.6701C56.6063 29.0752 56.8741 29.2778 57.2653 29.2778C57.6564 29.2778 57.9288 29.0776 58.0848 28.6724Z" fill="white"/>
<path d="M97.9131 25.7085V26.3348C97.9131 27.1311 97.9364 27.7271 97.983 28.1253C98.0295 28.5234 98.1273 28.8121 98.2763 28.996C98.4253 29.1777 98.6535 29.2685 98.9632 29.2685C99.3799 29.2685 99.6687 29.1055 99.8223 28.7818C99.9783 28.4582 100.062 27.918 100.076 27.1637L102.484 27.3057C102.498 27.4128 102.505 27.5618 102.505 27.7504C102.505 28.8959 102.19 29.7528 101.564 30.3185C100.938 30.8843 100.051 31.1684 98.905 31.1684C97.5289 31.1684 96.565 30.7376 96.0132 29.8738C95.4591 29.01 95.1843 27.6759 95.1843 25.8691V23.7038C95.1843 21.8435 95.4707 20.4837 96.0435 19.6269C96.6162 18.7701 97.5965 18.3417 98.9865 18.3417C99.9434 18.3417 100.679 18.5163 101.191 18.8679C101.704 19.2195 102.064 19.7643 102.274 20.507C102.484 21.2497 102.588 22.2742 102.588 23.5827V25.7061H97.9131V25.7085ZM98.267 20.4884C98.125 20.663 98.0319 20.9494 97.983 21.3475C97.9364 21.7457 97.9131 22.3487 97.9131 23.159V24.0484H99.955V23.159C99.955 22.3627 99.9271 21.7596 99.8736 21.3475C99.82 20.9354 99.7222 20.6467 99.5802 20.4767C99.4382 20.3091 99.2193 20.223 98.9236 20.223C98.6279 20.2253 98.4067 20.3138 98.267 20.4884Z" fill="white"/>
<path d="M48.1521 25.4756L44.9763 14.0063H47.747L48.8599 19.2055C49.144 20.4861 49.3512 21.578 49.4863 22.4814H49.5678C49.6609 21.8341 49.8704 20.7492 50.1941 19.2241L51.3466 14.0063H54.1173L50.9042 25.4756V30.9774H48.1521V25.4756V25.4756Z" fill="white"/>
<path d="M70.1431 18.5791V30.9797H67.9591L67.717 29.4617H67.6564C67.0627 30.6072 66.1733 31.1799 64.9858 31.1799C64.164 31.1799 63.5563 30.9099 63.1651 30.372C62.7739 29.8319 62.5784 28.989 62.5784 27.8435V18.5791H65.37V27.6805C65.37 28.2346 65.4306 28.6281 65.5516 28.8633C65.6727 29.0984 65.8753 29.2172 66.1593 29.2172C66.4015 29.2172 66.6343 29.1427 66.8578 28.9937C67.0813 28.8446 67.2443 28.6561 67.3537 28.4279V18.5791H70.1431Z" fill="white"/>
<path d="M84.46 18.5791V30.9797H82.276L82.0339 29.4617H81.9733C81.3796 30.6072 80.4902 31.1799 79.3027 31.1799C78.4808 31.1799 77.8732 30.9099 77.482 30.372C77.0908 29.8319 76.8953 28.989 76.8953 27.8435V18.5791H79.6869V27.6805C79.6869 28.2346 79.7474 28.6281 79.8685 28.8633C79.9896 29.0984 80.1922 29.2172 80.4762 29.2172C80.7184 29.2172 80.9512 29.1427 81.1747 28.9937C81.3982 28.8446 81.5612 28.6561 81.6706 28.4279V18.5791H84.46Z" fill="white"/>
<path d="M77.7264 16.2508H74.9557V30.9774H72.2246V16.2508H69.4539V14.0063H77.7264V16.2508V16.2508Z" fill="white"/>
<path d="M93.6987 20.5605C93.5287 19.7782 93.2563 19.2124 92.8791 18.8609C92.5019 18.5093 91.9827 18.3347 91.3215 18.3347C90.8093 18.3347 90.3296 18.479 89.8849 18.7701C89.4402 19.0611 89.0956 19.4406 88.8535 19.9133H88.8325V13.38H86.1433V30.9774H88.4483L88.7324 29.8039H88.7929C89.0095 30.223 89.3331 30.5513 89.7638 30.7958C90.1946 31.038 90.6742 31.159 91.2004 31.159C92.1434 31.159 92.8396 30.7236 93.2843 29.8552C93.729 28.9844 93.9525 27.627 93.9525 25.7783V23.8155C93.9525 22.4278 93.8663 21.3428 93.6987 20.5605ZM91.1399 25.6176C91.1399 26.521 91.1026 27.2288 91.0281 27.7411C90.9536 28.2533 90.8302 28.6188 90.6533 28.833C90.4786 29.0496 90.2412 29.1567 89.9455 29.1567C89.715 29.1567 89.5031 29.1031 89.3075 28.9937C89.1119 28.8866 88.9536 28.7236 88.8325 28.5094V21.4709C88.9256 21.1333 89.0886 20.8586 89.3191 20.642C89.5473 20.4255 89.7988 20.3184 90.0665 20.3184C90.3506 20.3184 90.5694 20.4301 90.7231 20.6513C90.8791 20.8749 90.9862 21.2474 91.0467 21.7736C91.1073 22.2998 91.1376 23.0472 91.1376 24.0181V25.6176H91.1399Z" fill="white"/>
<path d="M111.657 16.2507H108.886V30.975H106.155V16.2507H103.385V14.0062H111.657V16.2507Z" fill="white"/>
<path d="M112.244 14.0062H115.175L116.085 21.6501C116.348 23.834 116.57 25.7153 116.854 28.3044H116.975C117.238 25.7153 117.48 23.876 117.743 21.6501L118.654 14.0062H121.545L118.775 30.975H115.094L112.244 14.0062Z" fill="white"/>
</g>
<defs>
<clipPath id="clip0_2431_41253">
<rect width="107.654" height="19.8" fill="white" transform="translate(13.8933 12.6)"/>
</clipPath>
</defs>
</svg>
